<?xml version="1.0" encoding="utf-8"?>
<!-- Generator: Adobe Illustrator 15.1.0, SVG Export Plug-In . SVG Version: 6.00 Build 0)  -->
<!DOCTYPE svg PUBLIC "-//W3C//DTD SVG 1.1//EN" "http://www.w3.org/Graphics/SVG/1.1/DTD/svg11.dtd">
<svg version="1.1" id="レイヤー_1" xmlns="http://www.w3.org/2000/svg" xmlns:xlink="http://www.w3.org/1999/xlink" x="0px"
	 y="0px" width="700px" height="453px" viewBox="0 0 700 453" enable-background="new 0 0 700 453" xml:space="preserve">
<rect x="0.5" y="148.5" fill="#FFFFFF" stroke="#000000" stroke-miterlimit="10" width="146" height="45"/>
<rect x="22.41" y="162.87" fill="none" width="112.179" height="16.26"/>
<text transform="matrix(1 0 0 1 22.4102 175.188)" font-family="'YuGothic-Regular'" font-size="14">代表取締役社長</text>
<rect x="323.5" y="0.5" fill="#FFFFFF" stroke="#000000" stroke-miterlimit="10" width="146" height="45"/>
<rect x="372.744" y="14.87" fill="none" width="47.512" height="16.26"/>
<text transform="matrix(1 0 0 1 372.7437 27.188)" font-family="'YuGothic-Regular'" font-size="14">総務部</text>
<rect x="323.5" y="99.5" fill="#FFFFFF" stroke="#000000" stroke-miterlimit="10" width="146" height="45"/>
<rect x="372.744" y="113.87" fill="none" width="47.512" height="16.26"/>
<text transform="matrix(1 0 0 1 372.7437 126.188)" font-family="'YuGothic-Regular'" font-size="14">営業部</text>
<rect x="323.5" y="199.5" fill="#FFFFFF" stroke="#000000" stroke-miterlimit="10" width="146" height="45"/>
<rect x="372.744" y="213.87" fill="none" width="47.512" height="16.26"/>
<text transform="matrix(1 0 0 1 372.7437 226.1875)" font-family="'YuGothic-Regular'" font-size="14">企画部</text>
<rect x="323.5" y="301.5" fill="#FFFFFF" stroke="#000000" stroke-miterlimit="10" width="146" height="45"/>
<rect x="372.744" y="315.869" fill="none" width="47.512" height="16.261"/>
<text transform="matrix(1 0 0 1 372.7437 328.1875)" font-family="'YuGothic-Regular'" font-size="14">工事部</text>
<rect x="553.5" y="250.5" fill="#FFFFFF" stroke="#000000" stroke-miterlimit="10" width="146" height="45"/>
<rect x="587.411" y="264.869" fill="none" width="78.178" height="16.261"/>
<text transform="matrix(1 0 0 1 587.4111 277.1875)" font-family="'YuGothic-Regular'" font-size="14">工事第一課</text>
<rect x="553.5" y="351.5" fill="#FFFFFF" stroke="#000000" stroke-miterlimit="10" width="146" height="45"/>
<rect x="586.033" y="365.869" fill="none" width="80.934" height="16.261"/>
<text transform="matrix(1 0 0 1 586.0332 378.1875)" font-family="'YuGothic-Regular'" font-size="14">工事第二課</text>
<rect x="323.5" y="407.5" fill="#FFFFFF" stroke="#000000" stroke-miterlimit="10" width="146" height="45"/>
<rect x="344.994" y="421.869" fill="none" width="103.012" height="16.261"/>
<text transform="matrix(1 0 0 1 344.9937 434.1875)" font-family="'YuGothic-Regular'" font-size="14">情報システム部</text>
<rect x="162.5" y="69.5" fill="#FFFFFF" stroke="#000000" stroke-miterlimit="10" width="94" height="45"/>
<rect x="182.41" y="85.87" fill="none" width="65.18" height="16.26"/>
<text transform="matrix(1 0 0 1 182.4102 98.188)" font-family="'YuGothic-Regular'" font-size="14">取締役会</text>
<line fill="none" stroke="#000000" stroke-miterlimit="10" x1="146" y1="171.5" x2="281" y2="171.5"/>
<line fill="none" stroke="#000000" stroke-miterlimit="10" x1="282" y1="23.5" x2="324" y2="23.5"/>
<line fill="none" stroke="#000000" stroke-miterlimit="10" x1="282" y1="123.5" x2="324" y2="123.5"/>
<line fill="none" stroke="#000000" stroke-miterlimit="10" x1="282" y1="223.5" x2="324" y2="223.5"/>
<line fill="none" stroke="#000000" stroke-miterlimit="10" x1="282" y1="430.5" x2="324" y2="430.5"/>
<line fill="none" stroke="#000000" stroke-miterlimit="10" x1="282" y1="323.5" x2="324" y2="323.5"/>
<line fill="none" stroke="#000000" stroke-miterlimit="10" x1="512" y1="273.5" x2="554" y2="273.5"/>
<line fill="none" stroke="#000000" stroke-miterlimit="10" x1="512.5" y1="274" x2="512.5" y2="374"/>
<line fill="none" stroke="#000000" stroke-miterlimit="10" x1="469" y1="324.5" x2="512" y2="324.5"/>
<line fill="none" stroke="#000000" stroke-miterlimit="10" x1="512" y1="373.5" x2="554" y2="373.5"/>
<line fill="none" stroke="#000000" stroke-miterlimit="10" x1="281.5" y1="23" x2="281.5" y2="431"/>
<line fill="none" stroke="#000000" stroke-miterlimit="10" x1="209.5" y1="114" x2="209.5" y2="171"/>
</svg>
